<svg height="512pt" viewBox="0 0 512.0007 512" width="512pt" xmlns="http://www.w3.org/2000/svg"><path d="m436.160156 436.117188c48.558594-48.558594 75.492188-112.9375 75.835938-181.28125.347656-68.402344-25.976563-132.582032-74.117188-180.71875 0 0 0 0 0-.003907-47.832031-47.824219-111.5-74.113281-179.410156-74.113281-.441406 0-.882812 0-1.328125.00390625-68.351563.34374975-132.734375 27.27734375-181.296875 75.83203175-48.5625 48.558593-75.496094 112.9375-75.83984375 181.28125-.34375025 68.398437 25.97656275 132.582031 74.11718775 180.71875 47.832031 47.824218 111.5 74.113281 179.410156 74.113281.441406 0 .882812 0 1.328125-.003907.085937 0 .175781-.003906.261719-.003906.390625.03125.78125.058594 1.175781.058594.289063 0 .578125-.007812.871094-.023438.253906-.015624.5-.054687.75-.082031 67.210937-1.121093 130.402343-27.949219 178.238281-75.777343h.003906c-.003906 0-.003906 0 0 0zm-405.242187-157.230469c60.039062-2.34375 116.578125-25.257813 161.453125-65.320313l42.414062 42.410156-149.695312 149.679688c-31.179688-35.59375-49.957032-79.597656-54.171875-126.769531zm55.882812-170.882813 84.316407 84.308594c-39.355469 34.617188-88.648438 54.441406-140.902344 56.582031 2.15625-52.285156 21.980468-101.550781 56.585937-140.890625zm393.476563 117.507813c-60.484375 4.441406-117.003906 29.851562-160.929688 72.59375l-42.132812-42.128907 149.695312-149.679687c29.511719 33.683594 47.90625 74.90625 53.367188 119.214844zm-224.277344 9.25-42.410156-42.40625c20.453125-22.902344 36.476562-48.878907 47.695312-77.421875 10.613282-27.003906 16.511719-55.195313 17.632813-84.011719 47.171875 4.214844 91.183593 22.988281 126.777343 54.160156zm-22.636719-130.800781c-9.703125 24.683593-23.484375 47.203124-41.03125 67.140624l-84.316406-84.308593c39.339844-34.605469 88.617187-54.425781 140.910156-56.578125-1.039062 25.289062-6.242187 50.035156-15.5625 73.746094zm22.636719 173.226562 43.0625 43.0625c-37.132812 45.59375-57.722656 102.585938-58.113281 161.34375-50.109375-2.742188-97.070313-21.824219-134.644531-54.722656zm14.949219 204.101562c.445312-50.71875 17.945312-99.929687 49.457031-139.699218l83.582031 83.570312c-37.363281 32.859375-83.679687 52.398438-133.039062 56.128906zm69.613281-161.972656c38.667969-37.492187 88.304688-59.832031 141.421875-63.851562-.464844 55.097656-20.507813 107.246094-56.78125 148.484375zm0 0"/></svg>